<svg width="18" height="19" viewBox="0 0 18 19" xmlns="http://www.w3.org/2000/svg"><title>clock</title><g fill="none" fill-rule="evenodd"><path d="M17.376 1.083h-3.574V.545a.546.546 0 0 0-1.09 0v.538H9.524V.545a.546.546 0 0 0-1.091 0v.538H5.383V.545a.546.546 0 0 0-1.091 0v.538H.582a.546.546 0 0 0-.545.546v12.325c0 .3.244.545.545.545H3.93a5.195 5.195 0 0 0 5.05 4.005 5.195 5.195 0 0 0 5.048-4.005h3.348a.546.546 0 0 0 .546-.545V1.629a.545.545 0 0 0-.546-.546zM4.292 2.174v.493a.546.546 0 0 0 1.09 0v-.493h3.052v.493a.546.546 0 0 0 1.09 0v-.493h3.187v.493a.546.546 0 0 0 1.091 0v-.493h3.029v2.23H1.128v-2.23h3.164zm4.684 15.239a4.1 4.1 0 0 1-4.096-4.096 4.1 4.1 0 0 1 4.096-4.095 4.1 4.1 0 0 1 4.095 4.095 4.1 4.1 0 0 1-4.095 4.096zm5.188-4.005l.002-.09A5.193 5.193 0 0 0 8.979 8.13a5.193 5.193 0 0 0-5.186 5.186l.002.091H1.128V5.496H16.83v7.912h-2.667z" fill="#000" fill-rule="nonzero"/><circle fill="#72F3FF" cx="8.975" cy="13.315" r="4.095"/></g></svg>