<svg xmlns="http://www.w3.org/2000/svg" width="245" height="62"><path fill-rule="evenodd" d="M223.655 61.151c-5.463 0-8.796-2.995-10.371-7.216-3.664 3.916-8.988 7.216-13.027 7.216-3.666 0-7.176-1.716-7.098-7.878-3.276 4.602-7.411 7.878-11.857 7.878-5.2 0-7.737-3.334-8.891-7.042-3.621 3.84-8.557 7.042-13.493 7.042-3.901 0-8.035-1.95-6.085-11.076l3.277-15.523c.702-3.276-.39-4.602-2.107-4.602-2.106 0-5.226 1.95-6.942 4.056l-4.758 22.231c-.78 3.588-3.744 4.914-6.552 4.914-1.404 0-2.73-.39-3.666-1.014l1.587-7.435c-5.34 5.369-12.452 8.449-18.59 8.449-5.852 0-10.799-2.792-12.562-8.792-4.005 5.138-11.212 8.792-17 8.792-4.184 0-7.58-1.979-8.487-6.584-3.627 3.632-8.596 6.584-12.416 6.584-3.666 0-7.332-1.716-7.254-7.878-3.276 4.602-7.41 7.878-11.856 7.878-5.232 0-7.769-3.374-8.912-7.109-5.422 5.08-12.008 7.109-18.309 7.109C6.039 61.151.657 50.387.657 38.375.657 18.484 12.358.465 26.632.465c7.566 0 10.842 5.148 10.842 9.906 0 4.135-2.496 7.957-6.318 7.957-1.404 0-3.744-.936-4.602-3.12 4.68-1.95 5.07-9.439-1.014-9.439-6.786 0-13.884 14.977-13.884 31.279 0 9.205 3.12 16.849 10.998 16.849 3.931 0 8.357-1.061 13.209-3.647a23.274 23.274 0 0 1-.107-2.203c0-13.651 8.815-27.223 19.657-27.223 3.51 0 6.084.858 8.034 2.574 1.326-1.56 3.355-2.262 5.305-2.262 1.404 0 2.73.39 3.666 1.014l-5.46 25.819c-.936 4.368.312 5.772 2.34 5.772 2.601 0 5.579-1.585 7.57-3.325.023-.269.037-.529.071-.809C80.528 21.37 85.754 4.833 95.972 4.833c3.666 0 6.24 2.262 6.24 6.318 0 6.085-5.07 18.565-15.132 33.932-.156.936-.312 1.95-.39 2.886-.546 4.056 1.482 5.616 4.212 5.616 3.593 0 8.544-2.684 10.932-6.076-.002-.109-.013-.21-.013-.32 0-10.141 6.708-26.365 19.579-26.365 7.098 0 8.892 3.978 8.892 7.488 0 6.63-3.51 11.935-18.564 20.281.78 4.212 3.666 5.772 7.254 5.772 5.607 0 12.769-3.966 16.13-8.404l3.369-15.777c.312-1.248-.078-1.95-.78-1.95-.39 0-.858.312-1.56.936-1.014-.624-1.56-3.042 0-4.29 2.652-2.106 5.46-3.744 8.736-3.744 2.808 0 4.446 1.326 3.744 4.29l-.78 3.51c3.276-4.68 8.269-7.8 12.793-7.8 4.134 0 7.098 3.276 5.304 11.466l-3.822 17.941c-.468 2.262.546 3.198 2.106 3.198 2.554 0 5.472-1.527 7.462-3.23a23.252 23.252 0 0 1-.132-2.464c0-13.651 8.814-27.223 19.657-27.223 3.198 0 5.616.702 7.488 2.184l1.95-9.126c.468-2.106-1.014-2.575-2.262-1.092-1.092-1.014-1.17-1.795-1.17-2.419 0-1.794 5.616-5.538 9.828-5.538 2.808 0 4.368 1.326 3.744 4.29l-8.19 38.846c-.936 4.368.312 5.772 2.34 5.772 2.561 0 5.489-1.536 7.479-3.245a21.55 21.55 0 0 1-.227-3.151c0-11.779 8.19-26.521 19.969-26.521 8.502 0 12.09 6.318 12.09 13.962 0 11.623-8.346 26.365-20.593 26.365zM58.221 26.674c-9.438 0-12.792 12.325-12.792 20.827 0 3.9 1.794 5.616 4.212 5.616 2.496 0 5.772-2.028 7.878-4.914l4.368-20.905a10.651 10.651 0 0 0-3.666-.624zm39.623-14.976c0-1.327-.468-1.717-1.326-1.717-2.574 0-5.772 11.701-8.424 28.16 6.864-12.715 9.75-23.791 9.75-26.443zm26.364 18.252c0-1.794-.936-3.042-2.262-3.042-7.722 0-10.218 12.871-10.452 18.331 7.566-4.758 12.714-10.219 12.714-15.289zm69.809-3.276c-9.439 0-12.793 12.325-12.793 20.827 0 3.9 1.794 5.616 4.212 5.616 2.496 0 5.773-2.028 7.879-4.914v.078l4.446-20.905c-1.326-.468-2.574-.702-3.744-.702zm39.857.078c-7.099 0-11.701 10.452-11.701 18.097 0 6.864 2.34 9.516 5.07 9.516 6.163 0 11.155-12.012 11.155-20.203 0-4.212-1.326-7.41-4.524-7.41z"/></svg>