<svg width="12" height="18" viewBox="0 0 12 18" xmlns="http://www.w3.org/2000/svg"><title>Group 3</title><g fill-rule="nonzero" fill="none"><path d="M.504 12.425a5.575 5.575 0 1 0 11.15 0c0-3.098-1.548-5.576-.51-7.744 0 0-1.658.31-2.587 2.788 0 0-3.098-3.098-1.803-7.434 0 0-3.153 1.239-2.823 5.266.282 3.452-.33 4.026-.33 4.026 0-2.787-2.18-4.026-2.18-4.026.631 3.407-.917 4.336-.917 7.124z" fill="#FFB446"/><path d="M10.103 13.745c0 2.32-1.79 4.299-4.109 4.254-2.182-.042-3.805-1.702-3.632-3.87.078-.969.813-2.537 2.013-4.124l.8.484C5.15 8.527 6.08 5.92 6.08 5.92c.61 2.747 4.024 3.459 4.024 7.825z" fill="#FFDC64"/><path d="M4.53 11.805c-.31 1.859-.929 2.535-.929 3.717 0 1.24 1.11 2.478 2.478 2.478a2.486 2.486 0 0 0 2.478-2.505c-.01-3.702-2.168-5.548-2.168-5.548.31 1.858-.62 2.787-.62 2.787-.387-.58-1.239-.929-1.239-.929z" fill="#FFF"/></g></svg>