<svg
 xmlns="http://www.w3.org/2000/svg"
 xmlns:xlink="http://www.w3.org/1999/xlink"
 width="245px" height="62px">
<path fill-rule="evenodd"  fill="rgb(0, 0, 0)"
 d="M223.655,61.151 C218.192,61.151 214.859,58.156 213.284,53.935 C209.620,57.851 204.296,61.151 200.257,61.151 C196.591,61.151 193.081,59.435 193.159,53.273 C189.883,57.875 185.748,61.151 181.302,61.151 C176.102,61.151 173.565,57.817 172.411,54.109 C168.790,57.949 163.854,61.151 158.918,61.151 C155.017,61.151 150.883,59.201 152.833,50.075 L156.110,34.552 C156.812,31.276 155.720,29.950 154.003,29.950 C151.897,29.950 148.777,31.900 147.061,34.006 L142.303,56.237 C141.523,59.825 138.559,61.151 135.751,61.151 C134.347,61.151 133.021,60.761 132.085,60.137 L133.672,52.702 C128.332,58.071 121.220,61.151 115.082,61.151 C109.230,61.151 104.283,58.359 102.520,52.359 C98.515,57.497 91.308,61.151 85.520,61.151 C81.336,61.151 77.940,59.172 77.033,54.567 C73.406,58.199 68.437,61.151 64.617,61.151 C60.951,61.151 57.285,59.435 57.363,53.273 C54.087,57.875 49.953,61.151 45.507,61.151 C40.275,61.151 37.738,57.777 36.595,54.042 C31.173,59.122 24.587,61.151 18.286,61.151 C6.039,61.151 0.657,50.387 0.657,38.375 C0.657,18.484 12.358,0.465 26.632,0.465 C34.198,0.465 37.474,5.613 37.474,10.371 C37.474,14.506 34.978,18.328 31.156,18.328 C29.752,18.328 27.412,17.392 26.554,15.208 C31.234,13.258 31.624,5.769 25.540,5.769 C18.754,5.769 11.656,20.746 11.656,37.048 C11.656,46.253 14.776,53.897 22.654,53.897 C26.585,53.897 31.011,52.836 35.863,50.250 C35.789,49.477 35.756,48.732 35.756,48.047 C35.756,34.396 44.571,20.824 55.413,20.824 C58.923,20.824 61.497,21.682 63.447,23.398 C64.773,21.838 66.802,21.136 68.752,21.136 C70.156,21.136 71.482,21.526 72.418,22.150 L66.958,47.969 C66.022,52.337 67.270,53.741 69.298,53.741 C71.899,53.741 74.877,52.156 76.868,50.416 C76.891,50.147 76.905,49.887 76.939,49.607 C80.528,21.370 85.754,4.833 95.972,4.833 C99.638,4.833 102.212,7.095 102.212,11.151 C102.212,17.236 97.142,29.716 87.080,45.083 C86.924,46.019 86.768,47.033 86.690,47.969 C86.144,52.025 88.172,53.585 90.902,53.585 C94.495,53.585 99.446,50.901 101.834,47.509 C101.832,47.400 101.821,47.299 101.821,47.189 C101.821,37.048 108.529,20.824 121.400,20.824 C128.498,20.824 130.292,24.802 130.292,28.312 C130.292,34.942 126.782,40.247 111.728,48.593 C112.508,52.805 115.394,54.365 118.982,54.365 C124.589,54.365 131.751,50.399 135.112,45.961 L138.481,30.184 C138.793,28.936 138.403,28.234 137.701,28.234 C137.311,28.234 136.843,28.546 136.141,29.170 C135.127,28.546 134.581,26.128 136.141,24.880 C138.793,22.774 141.601,21.136 144.877,21.136 C147.685,21.136 149.323,22.462 148.621,25.426 L147.841,28.936 C151.117,24.256 156.110,21.136 160.634,21.136 C164.768,21.136 167.732,24.412 165.938,32.602 L162.116,50.543 C161.648,52.805 162.662,53.741 164.222,53.741 C166.776,53.741 169.694,52.214 171.684,50.511 C171.591,49.644 171.552,48.809 171.552,48.047 C171.552,34.396 180.366,20.824 191.209,20.824 C194.407,20.824 196.825,21.526 198.697,23.008 L200.647,13.882 C201.115,11.776 199.633,11.307 198.385,12.790 C197.293,11.776 197.215,10.995 197.215,10.371 C197.215,8.577 202.831,4.833 207.043,4.833 C209.851,4.833 211.411,6.159 210.787,9.123 L202.597,47.969 C201.661,52.337 202.909,53.741 204.937,53.741 C207.498,53.741 210.426,52.205 212.416,50.496 C212.265,49.476 212.189,48.420 212.189,47.345 C212.189,35.566 220.379,20.824 232.158,20.824 C240.660,20.824 244.248,27.142 244.248,34.786 C244.248,46.409 235.902,61.151 223.655,61.151 ZM58.221,26.674 C48.783,26.674 45.429,38.999 45.429,47.501 C45.429,51.401 47.223,53.117 49.641,53.117 C52.137,53.117 55.413,51.089 57.519,48.203 L61.887,27.298 C60.561,26.830 59.391,26.674 58.221,26.674 ZM97.844,11.698 C97.844,10.371 97.376,9.981 96.518,9.981 C93.944,9.981 90.746,21.682 88.094,38.141 C94.958,25.426 97.844,14.350 97.844,11.698 ZM124.208,29.950 C124.208,28.156 123.272,26.908 121.946,26.908 C114.224,26.908 111.728,39.779 111.494,45.239 C119.060,40.481 124.208,35.020 124.208,29.950 ZM194.017,26.674 C184.578,26.674 181.224,38.999 181.224,47.501 C181.224,51.401 183.018,53.117 185.436,53.117 C187.932,53.117 191.209,51.089 193.315,48.203 L193.315,48.281 L197.761,27.376 C196.435,26.908 195.187,26.674 194.017,26.674 ZM233.874,26.752 C226.775,26.752 222.173,37.204 222.173,44.849 C222.173,51.713 224.513,54.365 227.243,54.365 C233.406,54.365 238.398,42.353 238.398,34.162 C238.398,29.950 237.072,26.752 233.874,26.752 Z"/>
</svg>
