<?xml version="1.0" encoding="UTF-8" standalone="no"?>
<svg width="18px" height="19px" viewBox="0 0 18 19" version="1.1" xmlns="http://www.w3.org/2000/svg" xmlns:xlink="http://www.w3.org/1999/xlink">
    <!-- Generator: Sketch 43.1 (39012) - http://www.bohemiancoding.com/sketch -->
    <title>clock</title>
    <desc>Created with Sketch.</desc>
    <defs></defs>
    <g id="Mobile" stroke="none" stroke-width="1" fill="none" fill-rule="evenodd">
        <g id="Main" transform="translate(-106.000000, -232.000000)">
            <g id="clock" transform="translate(106.000000, 232.000000)">
                <path d="M17.3762727,1.08345455 L13.8021818,1.08345455 L13.8021818,0.545454545 C13.8021818,0.244272727 13.5579091,0 13.2567273,0 C12.9555455,0 12.7112727,0.244272727 12.7112727,0.545454545 L12.7112727,1.08345455 L9.52463636,1.08345455 L9.52463636,0.545454545 C9.52463636,0.244272727 9.28036364,0 8.97918182,0 C8.678,0 8.43372727,0.244272727 8.43372727,0.545454545 L8.43372727,1.08345455 L5.38254545,1.08345455 L5.38254545,0.545454545 C5.38254545,0.244272727 5.13827273,0 4.83709091,0 C4.53590909,0 4.29163636,0.244272727 4.29163636,0.545454545 L4.29163636,1.08345455 L0.582181818,1.08345455 C0.281,1.08345455 0.0367272727,1.32772727 0.0367272727,1.62890909 L0.0367272727,13.9536364 C0.0367272727,14.2548182 0.281,14.4990909 0.582181818,14.4990909 L3.93,14.4990909 C4.46645455,16.7912727 6.52590909,18.5039091 8.97918182,18.5039091 C11.4324545,18.5039091 13.4919091,16.7911818 14.0283636,14.4990909 L17.3761818,14.4990909 C17.6773636,14.4990909 17.9216364,14.2548182 17.9216364,13.9536364 L17.9216364,1.62890909 C17.9217273,1.32772727 17.6775455,1.08345455 17.3762727,1.08345455 L17.3762727,1.08345455 Z M4.29163636,2.17436364 L4.29163636,2.66727273 C4.29163636,2.96845455 4.53590909,3.21272727 4.83709091,3.21272727 C5.13827273,3.21272727 5.38254545,2.96845455 5.38254545,2.66727273 L5.38254545,2.17436364 L8.43372727,2.17436364 L8.43372727,2.66727273 C8.43372727,2.96845455 8.678,3.21272727 8.97918182,3.21272727 C9.28036364,3.21272727 9.52463636,2.96845455 9.52463636,2.66727273 L9.52463636,2.17436364 L12.7112727,2.17436364 L12.7112727,2.66727273 C12.7112727,2.96845455 12.9555455,3.21272727 13.2567273,3.21272727 C13.5579091,3.21272727 13.8021818,2.96845455 13.8021818,2.66727273 L13.8021818,2.17436364 L16.8308182,2.17436364 L16.8308182,4.40490909 L1.12763636,4.40490909 L1.12763636,2.17436364 L4.29163636,2.17436364 L4.29163636,2.17436364 Z M8.97572834,17.413 C6.7173647,17.413 4.88000107,15.5756364 4.88000107,13.3172727 C4.88000107,11.0589091 6.7173647,9.22154545 8.97572834,9.22154545 C11.234092,9.22154545 13.0714556,11.0588182 13.0714556,13.3172727 C13.0714556,15.5757273 11.2341829,17.413 8.97572834,17.413 L8.97572834,17.413 Z M14.1635455,13.4081818 C14.1640909,13.3778182 14.1658182,13.3477273 14.1658182,13.3172727 C14.1658182,10.4573636 11.8390909,8.13063636 8.97918182,8.13063636 C6.11927273,8.13063636 3.79254545,10.4573636 3.79254545,13.3172727 C3.79254545,13.3477273 3.79436364,13.3778182 3.79481818,13.4081818 L1.12754545,13.4081818 L1.12754545,5.49590909 L16.8307273,5.49590909 L16.8307273,13.4081818 L14.1635455,13.4081818 L14.1635455,13.4081818 Z" id="Shape" fill="#000000" fill-rule="nonzero"></path>
                <circle id="Oval" fill="#FF74C9" cx="8.97500086" cy="13.315001" r="4.09499979"></circle>
            </g>
        </g>
    </g>
</svg>