<?xml version="1.0" encoding="UTF-8" standalone="no"?>
<svg width="12px" height="18px" viewBox="0 0 12 18" version="1.1" xmlns="http://www.w3.org/2000/svg" xmlns:xlink="http://www.w3.org/1999/xlink">
    <!-- Generator: Sketch 43.1 (39012) - http://www.bohemiancoding.com/sketch -->
    <title>Group 3</title>
    <desc>Created with Sketch.</desc>
    <defs></defs>
    <g id="Mobile" stroke="none" stroke-width="1" fill="none" fill-rule="evenodd">
        <g id="Main" transform="translate(-51.000000, -259.000000)" fill-rule="nonzero">
            <g id="clock" transform="translate(46.000000, 232.000000)">
                <g id="fire" transform="translate(5.500000, 27.000000)">
                    <g id="Group-3">
                        <path d="M0.00361403509,12.4246667 C0.00361403509,15.5038596 2.49978947,18 5.57894737,18 L5.57894737,18 C8.65810526,18 11.1542807,15.5038596 11.1542807,12.4246667 C11.1542807,9.32726316 9.60557895,6.84933333 10.6446667,4.68115789 C10.6446667,4.68115789 8.98607018,4.99091228 8.05687719,7.46880702 C8.05687719,7.46880702 4.95947368,4.37140351 6.25357895,0.0350526316 C6.25357895,0.0350526316 3.10105263,1.274 3.43073684,5.30063158 C3.71347368,8.75347368 3.10105263,9.32726316 3.10105263,9.32726316 C3.10105263,6.53961404 0.921578947,5.30063158 0.921578947,5.30063158 C1.55231579,8.70778947 0.00361403509,9.63701754 0.00361403509,12.4246667 Z" id="Shape" fill="#FFB446"></path>
                        <path d="M9.60336842,13.7450526 C9.60336842,16.0641053 7.81273684,18.0438596 5.49410526,17.9991228 C3.31207018,17.9570877 1.68859649,16.2968772 1.86210526,14.1282105 C1.93954386,13.1602807 2.67515789,11.5922105 3.87540351,10.004807 L4.67557895,10.4887719 C4.6497193,8.52712281 5.57894737,5.92014035 5.57894737,5.92014035 C6.18933333,8.66691228 9.60336842,9.37887719 9.60336842,13.7450526 Z" id="Shape" fill="#FFDC64"></path>
                        <path d="M4.03024561,11.805193 C3.72049123,13.6636491 3.10101754,14.3402456 3.10101754,15.5220702 C3.10101754,16.7610526 4.21045614,18 5.57894737,18 L5.57894737,18 C6.95733333,18 8.06066667,16.8737895 8.05684211,15.4954035 C8.04649123,11.7933684 5.88870175,9.94677193 5.88870175,9.94677193 C6.19845614,11.8052281 5.26922807,12.7344211 5.26922807,12.7344211 C4.88214035,12.1538596 4.03024561,11.805193 4.03024561,11.805193 Z" id="Shape" fill="#FFFFFF"></path>
                    </g>
                </g>
            </g>
        </g>
    </g>
</svg>